/* XPM */
static char *BitcoinDiamond32[] = {
/* columns rows colors chars-per-pixel */
"28 28 151 2 ",
"   c #0B1018",
".  c #191E26",
"X  c #1A1F2B",
"o  c #272C37",
"O  c #292E41",
"+  c #343944",
"@  c #353A4A",
"#  c #383D57",
"$  c #3A4060",
"%  c #404650",
"&  c #444A5A",
"*  c #484D6E",
"=  c #4E546A",
"-  c #575A60",
";  c #515768",
":  c #52596D",
">  c #66696E",
",  c #606673",
"<  c #60657D",
"1  c #6A707E",
"2  c #75787D",
"3  c #E6BB1F",
"4  c #D7B72F",
"5  c #D8B62F",
"6  c #CFA93E",
"7  c #CAB13F",
"8  c #FFC600",
"9  c #F3C10F",
"0  c #B49F5C",
"q  c #BDAB4F",
"w  c #9C8E7A",
"e  c #95997F",
"r  c #A49E6F",
"t  c #AA936C",
"y  c #A1A16F",
"u  c #363BBE",
"i  c #63698D",
"p  c #656A87",
"a  c #6F7597",
"s  c #6D739A",
"d  c #4A4FB4",
"f  c #4B50BB",
"g  c #555ABA",
"h  c #5D61BC",
"j  c #7278A1",
"k  c #373BC1",
"l  c #3742D9",
"z  c #3943DE",
"x  c #3B44E6",
"c  c #2E5FE7",
"v  c #305DEC",
"b  c #3E4BF2",
"n  c #3554F4",
"m  c #345AF2",
"M  c #3956F9",
"N  c #335BFA",
"B  c #3C59F3",
"V  c #2C60E7",
"C  c #2C61E9",
"Z  c #3C6AEE",
"A  c #3575EF",
"S  c #2E63FC",
"D  c #2A6CFE",
"F  c #266EFC",
"G  c #3161FC",
"H  c #2770FE",
"J  c #4146C4",
"K  c #4B57DA",
"L  c #565BC8",
"P  c #417BDE",
"I  c #686EC7",
"U  c #696EC8",
"Y  c #6064C2",
"T  c #6166D1",
"R  c #767BD4",
"E  c #777EDC",
"W  c #4851EF",
"Q  c #4351E6",
"!  c #5157E8",
"~  c #435DFA",
"^  c #446FEE",
"/  c #5873E1",
"(  c #5776E3",
")  c #4F6AFC",
"_  c #556FF4",
"`  c #626AE1",
"'  c #6376F7",
"]  c #6278F7",
"[  c #6476F8",
"{  c #788F9E",
"}  c #5C87BF",
"|  c #7B83A3",
" . c #4E81CE",
".. c #6786ED",
"X. c #788CE7",
"o. c #6D92EE",
"O. c #6C82F7",
"+. c #768AF4",
"@. c #7B8AFA",
"#. c #7A84F2",
"$. c #7291F6",
"%. c #8C8C8E",
"&. c #92868C",
"*. c #85978F",
"=. c #81819D",
"-. c #94969A",
";. c #888FAC",
":. c #979CBC",
">. c #B2B4B7",
",. c #989EC4",
"<. c #8187DB",
"1. c #8298DE",
"2. c #9AA0C9",
"3. c #AAB3CB",
"4. c #A7ADDE",
"5. c #A3ADD0",
"6. c #AEB4D1",
"7. c #B3BDD7",
"8. c #B1B7D9",
"9. c #B2B8DC",
"0. c #8188E0",
"q. c #8E9EE6",
"w. c #8D96EE",
"e. c #8995E2",
"r. c #999FEE",
"t. c #848DF2",
"y. c #94A3ED",
"u. c #97A7F6",
"i. c #97A6F9",
"p. c #9BA9F6",
"a. c #A0A6E3",
"s. c #ADB4EB",
"d. c #B4BAE2",
"f. c #B8BFEC",
"g. c #ADB4F2",
"h. c #A2B0F8",
"j. c #ADB8F9",
"k. c #ABB8F8",
"l. c #B6BEF3",
"z. c #B0BAF8",
"x. c #BFC7DC",
"c. c #B5C0E7",
"v. c #B6C2F5",
"b. c #B7C1F9",
"n. c #BBC5F9",
"m. c #C0C6EE",
"M. c #C2CBE3",
"N. c #C9CFF2",
"B. c #D4DBF2",
"V. c #F0F0F1",
"C. c white",
/* pixels */
"C.C.C.C.C.C.C.C.V.-.- .         X - -.V.C.C.C.C.C.C.C.C.",
"C.C.C.C.C.C.V.>                         > V.C.C.C.C.C.C.",
"C.C.C.C.C.>..                             . >.C.C.C.C.C.",
"C.C.C.C.2                                     2 C.C.C.C.",
"C.C.C.2                                         2 C.C.C.",
"C.C.>.            + % % % % % % % % o             >.C.C.",
"C.V..         & 3.X.( ( / / / / / ( e.x.,         . V.C.",
"C.>       @ x.q.^ G G N N N N m N N N B X.c.1       > C.",
"V.      . d.u.k.#.M N N N N N N N N N $.v.o.c.o       V.",
"-.      5._ n B +.n.n.l.b.b.b.b.n.n.v.o.C C ^ 9.      -.",
"-     | +.n n n n h.N G S S S S G N j.C C C C ..;.    - ",
".   ; y.n n n n n k.S F P { e D D G h.C v m m n r.;   . ",
"    B.+.M M n n O.@.D  .*.4 8 } A D @.O.B M n n ' B.    ",
"    * f.l.+.n n i.) D y 8 8 8 8 4 H ) u.n B +.l.v.;     ",
"      i a.E l.+.k.M S H 4 4 q 8 3 H M k.+.l.R a.p       ",
"        j R J X.k.M N D 7 8 8 8 5 Z M l.R k R a         ",
".         ,.R k y.[ N D 7 5 A q 8 %.' 1.u R :.        . ",
"-           2.Y J g.M y 9 3 %.3 8 =.v.J T ,.          - ",
"-.          . 9.g <.#.w 0 3 8 w &.t.R L 8..           -.",
"V.            X d.d v.Q h t 6 W W s.f 9..             V.",
"C.>             o d.U w.z z x x r.U d.o             > C.",
"C.V..             # d.s.K l z ! s.d.@             . V.C.",
"C.C.>.              $ 4.s.l z g.4.&               >.C.C.",
"C.C.C.2               p n.` ` m.<               2 C.C.C.",
"C.C.C.C.2               s N.N.p               2 C.C.C.C.",
"C.C.C.C.C.>..             6.3.            . >.C.C.C.C.C.",
"C.C.C.C.C.C.V.>                         > V.C.C.C.C.C.C.",
"C.C.C.C.C.C.C.C.V.-.- .         X - -.V.C.C.C.C.C.C.C.C."
};
