/* XPM */
static char *BitcoinDiamond64[] = {
/* columns rows colors chars-per-pixel */
"58 58 191 2 ",
"   c #0B1018",
".  c #0E1324",
"X  c #0F142A",
"o  c #191E26",
"O  c #1D2238",
"+  c #262B34",
"@  c #292D34",
"#  c #212748",
"$  c #383C43",
"%  c #333842",
"&  c #232851",
"*  c #30365F",
"=  c #2E3457",
"-  c #323765",
";  c #3C4166",
":  c #3F4471",
">  c #404651",
",  c #474B51",
"<  c #545A6A",
"1  c #42487B",
"2  c #4F5563",
"3  c #5B616D",
"4  c #66696E",
"5  c #656A7C",
"6  c #75787D",
"7  c #E5BB1F",
"8  c #D9B52F",
"9  c #CFA93D",
"0  c #CAB13F",
"q  c #FFC600",
"w  c #F2C10F",
"e  c #B59D5E",
"r  c #AEA75F",
"t  c #B4A05E",
"y  c #BCAB4F",
"u  c #9C8E7C",
"i  c #939B7F",
"p  c #9A917B",
"a  c #A6996E",
"s  c #A1A16F",
"d  c #3439AC",
"f  c #3338A5",
"g  c #363BB2",
"h  c #363BBD",
"j  c #3E43AC",
"k  c #444986",
"l  c #51568F",
"z  c #767B89",
"x  c #707596",
"c  c #4146B7",
"v  c #555ABC",
"b  c #4A50B8",
"n  c #5E63AE",
"m  c #6B70A7",
"M  c #6B71AA",
"N  c #6A73BB",
"B  c #7479B5",
"V  c #777CAB",
"C  c #373BC3",
"Z  c #3742D5",
"A  c #3742D9",
"S  c #3841DB",
"D  c #3A45E4",
"F  c #3D46EC",
"G  c #394AE9",
"H  c #2E5FE9",
"J  c #335AEE",
"K  c #3D4BF3",
"L  c #3E4EFA",
"P  c #3E47F0",
"I  c #3554F3",
"U  c #3854F5",
"Y  c #335AF4",
"T  c #3756F8",
"R  c #3B54FB",
"E  c #335CFB",
"W  c #3959FC",
"Q  c #3F5DF1",
"!  c #2D60E6",
"~  c #2C61E9",
"^  c #3967EC",
"/  c #3D72EB",
"(  c #2D64FC",
")  c #276DFC",
"_  c #2B6BFE",
"`  c #2A67F7",
"'  c #3161FD",
"]  c #3D66FA",
"[  c #2671FE",
"{  c #2870FF",
"}  c #4146C4",
"|  c #4B51C9",
" . c #575BC9",
".. c #424CDB",
"X. c #4C55D6",
"o. c #5579CF",
"O. c #407CDF",
"+. c #4B72DE",
"@. c #5462DC",
"#. c #6469C9",
"$. c #6269D7",
"%. c #6D72D4",
"&. c #777DDB",
"*. c #767CD3",
"=. c #7177C8",
"-. c #4A56E9",
";. c #414DFD",
":. c #415CF4",
">. c #4859FA",
",. c #4D56EC",
"<. c #4B66F4",
"1. c #4B6CFB",
"2. c #586CF7",
"3. c #5E7EF3",
"4. c #626BE4",
"5. c #6575F9",
"6. c #6578F9",
"7. c #6378F7",
"8. c #6B73F0",
"9. c #867C99",
"0. c #7A8D9E",
"q. c #5E85BF",
"w. c #6C8AAF",
"e. c #7A80BB",
"r. c #4F82CF",
"t. c #5081CF",
"y. c #7F98DD",
"u. c #5C88ED",
"i. c #7587E2",
"p. c #7E96E5",
"a. c #6C82F9",
"s. c #768BF6",
"d. c #7B88F8",
"f. c #6789ED",
"g. c #94969A",
"h. c #83839D",
"j. c #868DA4",
"k. c #949BAC",
"l. c #A3A5A8",
"z. c #B2B4B7",
"x. c #A2A8BA",
"c. c #8388CA",
"v. c #848AD9",
"b. c #8894DD",
"n. c #9096D8",
"m. c #9DA3D4",
"M. c #9AA5DC",
"N. c #94A1D6",
"B. c #B4BACB",
"V. c #A0A6DD",
"C. c #A9AFDC",
"Z. c #A6ACC7",
"A. c #838AE5",
"S. c #8996E6",
"D. c #979FE8",
"F. c #8C9CF5",
"G. c #8B97F6",
"H. c #8BA4F6",
"J. c #97A6F6",
"K. c #9CB3F4",
"L. c #9FA5E8",
"P. c #A1AAEB",
"I. c #A2A8E4",
"U. c #AAB2E9",
"Y. c #B4BAE7",
"T. c #A1ADF5",
"R. c #A4AEF9",
"E. c #AAB6F6",
"W. c #B7BEF3",
"Q. c #B8BFF6",
"!. c #BBC2DA",
"~. c #BDC4E2",
"^. c #B7C2F9",
"/. c #B8C3F4",
"(. c #D1D2D4",
"). c #C0C6EC",
"_. c #C3CBE9",
"`. c #CDD5ED",
"'. c #C3C9F5",
"]. c #C3CCF9",
"[. c #CBD2F5",
"{. c #CCD4F9",
"}. c #C7D0F9",
"|. c #D6DCF5",
" X c #D6DDF8",
".X c #D5DBF6",
"XX c #DDE3F8",
"oX c #E0E1E2",
"OX c #E0E6F9",
"+X c #F0F0F1",
"@X c white",
/* pixels */
"@X@X@X@X@X@X@X@X@X@X@X@X@X@X@X@X@X@X@X@X@X(.g.4 ,                 , 4 g.(.@X@X@X@X@X@X@X@X@X@X@X@X@X@X@X@X@X@X@X@X@X",
"@X@X@X@X@X@X@X@X@X@X@X@X@X@X@X@X@X@X(.6 @                                 + 6 (.@X@X@X@X@X@X@X@X@X@X@X@X@X@X@X@X@X@X",
"@X@X@X@X@X@X@X@X@X@X@X@X@X@X@X@Xl.$                                             $ l.@X@X@X@X@X@X@X@X@X@X@X@X@X@X@X@X",
"@X@X@X@X@X@X@X@X@X@X@X@X@X@Xz.+                                                     + z.@X@X@X@X@X@X@X@X@X@X@X@X@X@X",
"@X@X@X@X@X@X@X@X@X@X@X@XoX,                                                             , oX@X@X@X@X@X@X@X@X@X@X@X@X",
"@X@X@X@X@X@X@X@X@X@X@Xz.o                                                                 o z.@X@X@X@X@X@X@X@X@X@X@X",
"@X@X@X@X@X@X@X@X@X@X6                                                                         6 @X@X@X@X@X@X@X@X@X@X",
"@X@X@X@X@X@X@X@X@X4                                                                             4 +X@X@X@X@X@X@X@X@X",
"@X@X@X@X@X@X@X+X$                                                                                 $ @X@X@X@X@X@X@X@X",
"@X@X@X@X@X@X@X4                                                                                     4 @X@X@X@X@X@X@X",
"@X@X@X@X@X@X6                                                                                         6 @X@X@X@X@X@X",
"@X@X@X@X@Xz.                          + 5 z z z z z z z z z z z z z z z z z z +                         z.@X@X@X@X@X",
"@X@X@X@XoXo                       + k.XXM.y.y.y.y.y.y.y.y.y.y.y.y.y.y.y.y.b.n.|.k.O                     o oX@X@X@X@X",
"@X@X@X@X,                     > x.XXy.Q R E W W R R R T U R L R R U L L R L L >.S.XX!.>                   , @X@X@X@X",
"@X@X@Xz.                  > B.`.S.:.W E Y E E E E E E E E E E T E E E E W W R R L >.y.`.B.>                 z.@X@X@X",
"@X@X@X@                 k.|.i.K L R R E ' Y E ' E E ' E E E E E E E E E E E E E E E U W K.XXk.              @ @X@X@X",
"@X@Xl.                3 `.R.XXT.5.L R E E E E E E E E E E ( E E E E ( E E ( E Y ( ] H. X/.u..X2               l.@X@X",
"@X@X$               % |.2.I Q s.{.{.d.>.R R Y E E Y Y E E Y ( Y E E E Y E E ( 1.K. XK./ ~ ~ 3..X+             $ @X@X",
"@X(.              o _.s.I J I J I a.Q. XJ.5.5.5.5.5.5.5.5.5.7.5.5.6.3.6.5.7.T. XH./ ~ ~ ~ ~ H H.~.              (.@X",
"@X6               x.P.I I I I I I I I <.].}.Q.^.Q.^.^.^.^.^.Q.Q.^.^.Q.^.^.].E.^ ~ ~ ~ ~ ~ ~ ~ ~ ^.j.            6 @X",
"@X+             z /.:.I G J I I I I I I |.1.E E E E E E E E E E W W W W W a.^.~ ~ ~ ~ ~ ~ ~ ! ! ^ |.2           + @X",
"(.            >  X1.I I I I I I I I Y <.{.E ' ' ( ( _ _ _ ( ( E ( ' ( E E W OX^ ! ~ ~ ~ ~ ! ! ! H 3.|.+           (.",
"g.          o |.a.I I J I I I I I G I H.J.W ' ` ) ) ) ) ) ) _ ( _ _ ( ' ' W ^.f.! ! ! ! ! ~ ~ Y J T F.~.          g.",
"4           !.J.I I I I I I I I J I I /.6.W ` ) ) ) r.0 s o.0 0._ ) ) ) ' W G.J.! ! H J Y I R E T I T ^.j.        4 ",
",         j./.I I I I I T I I I I I Q XXR W ` { [ [ q.q 0 q.q i [ [ [ [ { ' 2.{.I I T U T T T I U U I :.|.3       , ",
"          _. XK.<.I I I T T T I I T s.E.R ] ` O.i g.r q 7 r q 0 i r.[ [ { ' R XX<.R U U U U I T U U <.R.OXZ.        ",
"          # _.U.XXK.<.I I I T T T I E.d.R ' ) t.q q q q q q q q q q g.[ [ _ >.R.G.J Q T U U T I 2.R.|.'.Y..         ",
"            1 |.v.P.XXT.<.I I I I I  X2.W ' ) O.i w q q w 0 0 w q q q r.[ _ W d.E.I U I U I 7.^.|.b.U.).O           ",
"              1 |.#.| P.XXF.:.I I 3.].R W ( ( ) [ w.q q 0 [ [ r.q q q t.{ _ W >. XI I U s.Q.{.&.C v.).&             ",
"                n |. .h | P.|.G.W J.G.R W ' ( ) [ q.q q 0 [ [ t.q q q t.{ _ ' R ].7.s.[.}.&.C C &.|.-               ",
"                  M |.| C C X.P. X{.2.;.W E ' _ [ q.q q w 0 0 q q q y { ) _ E R T.|./.$.C C C %.|.:                 ",
"                    c.).} C C C X.].G.W W ' ' _ [ q.q q q q q q q q w 0.' E W U Q.A.h h h C  .|.l                   ",
"                    . m.).} C C C 4. X>.W E E _ _ w.q q 7 w.q.s w q q w ^ E E s.'.C h h h  ..Xm                     ",
",                     . C.V.h C C C E.F.R W ' _ _ t.q q 0 _ _ _ w.q q q N W >.{.$.h h C } '.V                     , ",
"4                       O ~.V.g h C X.OX<.K E _ _ t.q q 9 { _ _ i q q q o.R F.W.C C C } ).m.                      4 ",
"g.                        # _.i.d h h S.E.;.E +.i 8 q q 7 0 0 8 q q q 7 W <.|.| h C C U.m.X                       g.",
"(.                          = |.=.f g } .X8.K 9.q q q q q q q q q q 7 V U T.D.g h C I.).O                         (.",
"@X@                           1 XX#.d g &.'.K 9.p p r q 8 t q e N N @.L 4..Xc g h b.).#                         + @X",
"@X6                             l |.v d d W.d.D G G M q 9 g.q u R K K -.Q.v.g h *..X*                           6 @X",
"@X(.                              M `.v d #..X-.S G v 9 a 9.9 9.;.;.F 8.{.g g #.|.;                             (.@X",
"@X@X$                               e.).c f P.F.G G D D P K P P F P F [.%.d v .Xk                             $ @X@X",
"@X@Xl.                              . m.).j b |.-.S A D D F D F F F S.W.g  ..Xm                               l.@X@X",
"@X@X@X+                               . m.C.f b./.Z A A C D S D D ,..X .c `.m                               + @X@X@X",
"@X@X@Xz.                                O ).V.j {.@.A D C D S D F L.I.c ).m.                                z.@X@X@X",
"@X@X@X@X,                                 & _.v.i.{.Z A D C F D ,..X} Y.m..                               , @X@X@X@X",
"@X@X@X@XoXo                                 * |.B Y.A.A D C D D W.n.V.~.                                o oX@X@X@X@X",
"@X@X@X@X@Xz.                                  1 |.n. X..D D C 4.[.V.).O                                 z.@X@X@X@X@X",
"@X@X@X@X@X@X6                                   k |.U.D.C D D [.L..X#                                 6 @X@X@X@X@X@X",
"@X@X@X@X@X@X@X4                                   M  X XX.S A.'..X;                                 4 @X@X@X@X@X@X@X",
"@X@X@X@X@X@X@X@X$                                   N |./....X[.:                                 % +X@X@X@X@X@X@X@X",
"@X@X@X@X@X@X@X@X+X4                                 X m.OXW.OXx                                 4 @X@X@X@X@X@X@X@X@X",
"@X@X@X@X@X@X@X@X@X@X6                                 X Y.OXV                                 6 @X@X@X@X@X@X@X@X@X@X",
"@X@X@X@X@X@X@X@X@X@X@Xz.o                                 5                               . z.@X@X@X@X@X@X@X@X@X@X@X",
"@X@X@X@X@X@X@X@X@X@X@X@XoX,                                                             , oX@X@X@X@X@X@X@X@X@X@X@X@X",
"@X@X@X@X@X@X@X@X@X@X@X@X@X@Xz.+                                                     + z.@X@X@X@X@X@X@X@X@X@X@X@X@X@X",
"@X@X@X@X@X@X@X@X@X@X@X@X@X@X@X@Xl.@                                             % l.@X@X@X@X@X@X@X@X@X@X@X@X@X@X@X@X",
"@X@X@X@X@X@X@X@X@X@X@X@X@X@X@X@X@X@X(.6 @                                 + 6 (.@X@X@X@X@X@X@X@X@X@X@X@X@X@X@X@X@X@X",
"@X@X@X@X@X@X@X@X@X@X@X@X@X@X@X@X@X@X@X@X@X(.g.4 ,                 , 4 g.(.@X@X@X@X@X@X@X@X@X@X@X@X@X@X@X@X@X@X@X@X@X"
};
